<svg width="256" height="256" viewBox="0 0 256 256" fill="none" xmlns="http://www.w3.org/2000/svg">
<rect width="256" height="256" rx="36" fill="#136EF6"/>
<path d="M123.126 219.182V37.3636H134.774V219.182H123.126ZM154.021 97.3778C153.453 91.6487 151.014 87.1979 146.706 84.0256C142.397 80.8532 136.549 79.267 129.163 79.267C124.144 79.267 119.906 79.9773 116.45 81.3977C112.993 82.7708 110.342 84.6884 108.495 87.1506C106.696 89.6127 105.797 92.4062 105.797 95.5312C105.702 98.1354 106.246 100.408 107.43 102.349C108.661 104.291 110.342 105.972 112.473 107.392C114.603 108.765 117.065 109.973 119.859 111.014C122.653 112.009 125.636 112.861 128.808 113.571L141.876 116.696C148.221 118.116 154.045 120.01 159.348 122.378C164.651 124.745 169.243 127.657 173.126 131.114C177.009 134.57 180.015 138.642 182.146 143.33C184.324 148.017 185.437 153.391 185.484 159.452C185.437 168.353 183.164 176.071 178.666 182.605C174.215 189.092 167.776 194.134 159.348 197.733C150.967 201.284 140.858 203.06 129.021 203.06C117.279 203.06 107.051 201.26 98.3391 197.662C89.6744 194.063 82.9035 188.737 78.0266 181.682C73.1971 174.58 70.6639 165.796 70.4272 155.332H100.186C100.517 160.209 101.914 164.281 104.376 167.548C106.886 170.768 110.224 173.206 114.39 174.864C118.604 176.473 123.363 177.278 128.666 177.278C133.874 177.278 138.396 176.521 142.231 175.006C146.114 173.491 149.12 171.384 151.251 168.685C153.382 165.986 154.447 162.884 154.447 159.381C154.447 156.114 153.476 153.367 151.535 151.142C149.641 148.917 146.848 147.023 143.154 145.46C139.509 143.898 135.034 142.477 129.731 141.199L113.893 137.222C101.63 134.239 91.9471 129.575 84.8448 123.23C77.7425 116.885 74.2151 108.339 74.2624 97.5909C74.2151 88.7841 76.5588 81.09 81.2937 74.5085C86.0759 67.9271 92.6336 62.7898 100.967 59.0966C109.3 55.4034 118.77 53.5568 129.376 53.5568C140.172 53.5568 149.594 55.4034 157.643 59.0966C165.74 62.7898 172.037 67.9271 176.535 74.5085C181.033 81.09 183.353 88.7131 183.495 97.3778H154.021Z" fill="white"/>
</svg>
