<?xml version="1.0" standalone="no"?>
<!DOCTYPE svg PUBLIC "-//W3C//DTD SVG 20010904//EN"
 "http://www.w3.org/TR/2001/REC-SVG-20010904/DTD/svg10.dtd">
<svg version="1.0" xmlns="http://www.w3.org/2000/svg"
 width="700.000000pt" height="700.000000pt" viewBox="0 0 700.000000 700.000000"
 preserveAspectRatio="xMidYMid meet">
<metadata>
Created by potrace 1.14, written by Peter Selinger 2001-2017
</metadata>
<g transform="translate(0.000000,700.000000) scale(0.100000,-0.100000)"
fill="#000000" stroke="none">
<path d="M787 6984 c-395 -85 -693 -387 -772 -781 -14 -70 -15 -353 -13 -2738
l3 -2660 27 -86 c56 -180 136 -315 255 -432 124 -123 254 -199 428 -254 l90
-28 2695 0 2695 0 90 28 c174 55 304 131 428 254 119 117 199 252 255 432 l27
86 0 2695 0 2695 -28 90 c-55 174 -131 304 -254 428 -117 119 -252 199 -432
255 l-86 27 -2670 2 c-2316 1 -2679 0 -2738 -13z m2893 -1233 l0 -219 28 -6
c15 -2 59 -8 97 -11 172 -16 395 -80 546 -156 362 -182 585 -471 644 -833 8
-50 15 -112 15 -138 l0 -48 -399 0 -398 0 -7 53 c-10 76 -75 203 -133 259 -86
83 -227 151 -355 171 l-38 6 0 -488 0 -488 178 -43 c589 -143 922 -352 1095
-686 120 -233 146 -525 72 -803 -123 -456 -542 -767 -1141 -846 -63 -8 -135
-15 -160 -15 l-44 0 0 -225 0 -225 -155 0 -155 0 0 225 0 225 -47 0 c-192 1
-537 87 -728 182 -299 149 -520 410 -609 722 -25 85 -56 281 -56 352 l0 34
405 0 405 0 0 -33 c0 -52 27 -146 65 -223 48 -99 153 -198 267 -253 79 -38
226 -81 275 -81 l23 0 0 513 0 514 -187 48 c-334 85 -530 164 -709 284 -239
159 -373 351 -419 596 -24 125 -22 341 3 460 44 203 139 374 296 530 226 224
576 378 936 413 l75 7 3 223 2 222 155 0 155 0 0 -219z"/>
<path d="M3252 4801 c-156 -45 -270 -132 -325 -248 -30 -63 -32 -76 -32 -173
0 -95 3 -110 27 -156 33 -62 105 -134 178 -179 50 -30 190 -92 248 -110 l22
-6 0 445 0 446 -27 -1 c-16 0 -56 -9 -91 -18z"/>
<path d="M3680 2631 c0 -370 3 -471 13 -471 68 1 242 64 323 117 189 123 262
349 172 530 -29 57 -116 139 -194 180 -72 38 -228 99 -278 109 l-36 6 0 -471z"/>
</g>
</svg>
